<?xml version="1.0" encoding="UTF-8" standalone="no"?>
<!-- Created with Inkscape (http://www.inkscape.org/) -->

<svg
   width="64"
   height="64"
   viewBox="0 0 16.933333 16.933333"
   version="1.1"
   id="svg1"
   inkscape:version="1.3.2 (091e20e, 2023-11-25)"
   sodipodi:docname="heart.svg"
   xmlns:inkscape="http://www.inkscape.org/namespaces/inkscape"
   xmlns:sodipodi="http://sodipodi.sourceforge.net/DTD/sodipodi-0.dtd"
   xmlns="http://www.w3.org/2000/svg"
   xmlns:svg="http://www.w3.org/2000/svg">
  <sodipodi:namedview
     id="namedview1"
     pagecolor="#ffffff"
     bordercolor="#000000"
     borderopacity="0.25"
     inkscape:showpageshadow="2"
     inkscape:pageopacity="0.0"
     inkscape:pagecheckerboard="0"
     inkscape:deskcolor="#d1d1d1"
     inkscape:document-units="px"
     inkscape:zoom="8.6369951"
     inkscape:cx="46.254513"
     inkscape:cy="40.407572"
     inkscape:window-width="1728"
     inkscape:window-height="1051"
     inkscape:window-x="0"
     inkscape:window-y="38"
     inkscape:window-maximized="0"
     inkscape:current-layer="layer1"
     showguides="true">
    <sodipodi:guide
       position="8.4666665,11.747325"
       orientation="-1,0"
       id="guide1"
       inkscape:locked="false"
       inkscape:label=""
       inkscape:color="rgb(0,134,229)" />
  </sodipodi:namedview>
  <defs
     id="defs1" />
  <g
     inkscape:label="Ebene 1"
     inkscape:groupmode="layer"
     id="layer1">
    <path
       id="path1"
       style="fill:#000000;stroke-width:0"
       d="M 4.2834696,3.0349777e-4 A 4.2335941,4.4475952 0 0 0 0.69223431,2.0110638 4.2335941,4.4475952 0 0 0 1.020632,7.3444644 L 8.4666671,16.933333 15.912701,7.3444644 A 4.2335941,4.4475952 0 0 0 16.241099,2.0110638 4.2335941,4.4475952 0 0 0 12.649864,3.0349777e-4 4.2335941,4.4475952 0 0 0 11.454665,0.19723374 4.2335941,4.4475952 0 0 0 8.4666671,4.5193313 4.2335941,4.4475952 0 0 0 5.4786691,0.19723374 4.2335941,4.4475952 0 0 0 4.2834696,3.0349777e-4 Z" />
  </g>
</svg>
